<?xml version="1.0" encoding="utf-8"?>
<!-- Generator: Adobe Illustrator 23.0.6, SVG Export Plug-In . SVG Version: 6.00 Build 0)  -->
<svg version="1.1" id="Layer_1" xmlns="http://www.w3.org/2000/svg" xmlns:xlink="http://www.w3.org/1999/xlink" x="0px" y="0px"
	 viewBox="0 0 46.1 23.2" style="enable-background:new 0 0 46.1 23.2;" xml:space="preserve">
<g id="XMLID_1_">
	<g>
		<path d="M45,9.5v1c0,1.4-0.8,2.5-1.8,2.5H36V7h7.3C44.2,7,45,8.1,45,9.5z"/>
		<path d="M31.5,19.5c2-2.1,3.2-4.9,3.2-8c0-2.8-1-5.4-2.6-7.4H35v2c0,2.7,0,5.1,0,7.9v7h-5.2C30.4,20.5,31,20,31.5,19.5z"/>
		<path d="M11.3,11.5c0,3.1,1.2,5.9,3.2,8c0.5,0.5,1.1,1.1,1.7,1.5H11v-7c0,0,0.1,0,0.1-0.1c0-2.8,0-5.2,0-7.9c0,0-0.1,0-0.1,0V4.1
			h2.9C12.3,6.1,11.3,8.7,11.3,11.5z"/>
		<path d="M10,7v6H2.8c-1,0-1.8-1.1-1.8-2.5v-1C1,8.1,1.8,7,2.8,7H10z"/>
		<path d="M43.3,7H36v6h7.2c1,0,1.8-1.1,1.8-2.5v-1C45,8.1,44.2,7,43.3,7z M35,14c0-2.8,0-5.2,0-7.9C35.1,6,35.3,6,35.4,6h7.9
			c1.5,0,2.7,1.6,2.8,3.6v1c0,1.9-1.3,3.5-2.8,3.5h-7.9C35.3,14.1,35.1,14,35,14z"/>
		<path d="M30,19.4c-0.9,0.7-1.9,1.2-3,1.6h-8.1c-1.1-0.4-2-0.9-2.9-1.6c0.3-2.8,3.3-5,7-5S29.8,16.6,30,19.4z"/>
		<path d="M27.7,21c1-0.5,1.9-1.1,2.7-1.9c0,0.2,0,0.4,0.1,0.5c-0.7,0.6-1.5,1-2.3,1.4H27.7z"/>
		<path d="M31,19.6c-0.6,0.5-1.3,1-2,1.4h-0.8c0.8-0.4,1.6-0.8,2.3-1.4c0-0.2,0-0.4-0.1-0.5c0.1-0.1,0.2-0.2,0.3-0.3
			c0.1-0.1,0.1-0.1,0.2-0.2L31,19.6z"/>
		<path d="M27,21c-1.2,0.5-2.6,0.7-4,0.7c-1.5,0-2.8-0.2-4.1-0.7H27z"/>
		<path d="M28.2,21c-1.4,0.6-3,1-4.6,1.1c1.5-0.1,2.9-0.5,4.2-1.1H28.2z"/>
		<polygon points="23.2,7.5 23.8,12.5 22.4,12.4 		"/>
		<path d="M18.9,21c1.3,0.5,2.6,0.7,4.1,0.7c1.4,0,2.8-0.3,4-0.7h0.7c-1.3,0.6-2.7,1-4.2,1.1c-0.2,0-0.4,0-0.5,0s-0.4,0-0.5,0
			C21,22,19.6,21.6,18.3,21H18.9z"/>
		<path d="M22.5,22.1c-1.7-0.1-3.3-0.4-4.6-1.1h0.5C19.6,21.6,21,22,22.5,22.1z"/>
		<path d="M18.5,21.6c1.4,0.5,2.9,0.8,4.5,0.8c2.2,0,4.3-0.5,6-1.4h0.9c-1.9,1.4-4.3,2.2-6.8,2.2c-2.5,0-4.9-0.8-6.8-2.2h0.9
			L18.5,21.6z"/>
		<path d="M17.8,21c1.4,0.6,3,1,4.6,1.1c0.2,0,0.4,0,0.5,0s0.4,0,0.5,0c1.7-0.1,3.3-0.4,4.6-1.1H29c-1.7,0.9-3.8,1.4-6,1.4
			c-1.6,0-3.1-0.3-4.5-0.8L17.1,21H17.8z"/>
		<path d="M15.6,19.1C16,16.2,19.1,14,23,14s7,2.2,7.4,5.1c-0.8,0.8-1.7,1.4-2.7,1.9H27c1.1-0.4,2.1-0.9,3-1.6c-0.2-2.8-3.3-5-7-5
			s-6.7,2.2-7,5c0.9,0.7,1.8,1.2,2.9,1.6h-0.6C17.3,20.5,16.4,19.9,15.6,19.1z"/>
		<path d="M15.5,19.6c0-0.2,0-0.4,0.1-0.5c0.8,0.8,1.7,1.4,2.7,1.9h-0.5C17,20.6,16.2,20.2,15.5,19.6z"/>
		<path d="M15.1,18.6c0.7-2.8,3.9-5,7.9-5c2.2,0,4.2,0.7,5.6,1.8c0.5,0.4,1,0.8,2.2,3.2c-0.1,0.1-0.1,0.1-0.2,0.2
			c-0.1,0.1-0.2,0.2-0.3,0.3C30,16.2,26.9,14,23,14s-7,2.2-7.4,5.1c-0.1-0.1-0.2-0.2-0.3-0.3C15.2,18.7,15.2,18.7,15.1,18.6z"/>
		<path d="M15,19.6c0-0.3,0-0.7,0.1-1c0.1,0.1,0.1,0.1,0.2,0.2c0.1,0.1,0.2,0.2,0.3,0.3c0,0.2-0.1,0.4-0.1,0.5
			c0.7,0.6,1.5,1,2.3,1.4h-0.7L15,19.6z"/>
		<path d="M23,0.9c-5.8,0-10.6,4.8-10.6,10.6c0,2.6,1,5.1,2.7,7.1c-0.1,0.3-0.1,0.7-0.1,1l2.1,1.4h-0.9c-0.6-0.4-1.2-1-1.7-1.5
			c-2-2.1-3.2-4.9-3.2-8c0-2.8,1-5.4,2.6-7.4C16,1.5,19.3-0.2,23-0.2s7,1.7,9.1,4.3c1.6,2,2.6,4.6,2.6,7.4c0,3.1-1.2,5.9-3.2,8
			c-0.5,0.5-1.1,1-1.7,1.5H29c0.7-0.4,1.4-0.9,2-1.4l-0.1-1c1.7-2,2.7-4.4,2.7-7.1C33.6,5.7,28.8,0.9,23,0.9z"/>
		<path d="M11,14V6c0,0,0.1,0,0.1,0c0,2.7,0,5.1,0,7.9C11.1,13.9,11,13.9,11,14z"/>
		<path d="M2.8,13H10V7H2.8C1.8,7,1,8.1,1,9.5v1C1,11.9,1.8,13,2.8,13z M10.7,14H2.8C1.2,14,0,12.4,0,10.5v-1C0,7.6,1.2,6,2.8,6h7.8
			c0.1,0,0.2,0,0.4,0v8C10.9,14,10.8,14,10.7,14z"/>
	</g>
	<g>
		<polyline style="fill:none;stroke:#000000;stroke-miterlimit:10;" points="11,6 11,4.1 13.9,4.1 		"/>
		<polyline style="fill:none;stroke:#000000;stroke-miterlimit:10;" points="16.2,21 11,21 11,14 		"/>
		<polyline style="fill:none;stroke:#000000;stroke-miterlimit:10;" points="35,14 35,21 29.8,21 		"/>
		<polyline style="fill:none;stroke:#000000;stroke-miterlimit:10;" points="32.1,4.1 35,4.1 35,6.1 		"/>
		<line style="fill:none;stroke:#000000;stroke-width:0.5;stroke-miterlimit:10;" x1="23.3" y1="3" x2="23.3" y2="2"/>
		<line style="fill:none;stroke:#000000;stroke-width:0.5;stroke-miterlimit:10;" x1="28" y1="5" x2="28.7" y2="4.3"/>
		<line style="fill:none;stroke:#000000;stroke-width:0.5;stroke-miterlimit:10;" x1="30.9" y1="8.9" x2="31.8" y2="8.4"/>
		<line style="fill:none;stroke:#000000;stroke-width:0.5;stroke-miterlimit:10;" x1="15.8" y1="8.8" x2="14.9" y2="8.5"/>
		<line style="fill:none;stroke:#000000;stroke-width:0.5;stroke-miterlimit:10;" x1="18.7" y1="4.7" x2="18" y2="4"/>
		<polyline style="fill:none;stroke:#000000;stroke-width:0.25;stroke-miterlimit:10;" points="22.4,12.4 23.2,7.5 23.8,12.5 		"/>
	</g>
</g>
</svg>
