<?xml version="1.0" encoding="utf-8"?>
<!-- Generator: Adobe Illustrator 23.0.6, SVG Export Plug-In . SVG Version: 6.00 Build 0)  -->
<svg version="1.1" id="Layer_1" xmlns="http://www.w3.org/2000/svg" xmlns:xlink="http://www.w3.org/1999/xlink" x="0px" y="0px"
	 viewBox="0 0 47.6 47.3" style="enable-background:new 0 0 47.6 47.3;" xml:space="preserve">
<path style="fill:#020202;" d="M43.4,28.9c0.5-0.1,1.2,0.2,1.6,0.4c0,0.1,0,0.1,0,0.2l-3.1,0.2C42.3,29.2,42.8,28.9,43.4,28.9z"/>
<path style="fill:#020202;" d="M45.4,29.4H45c0-0.1,0-0.1,0-0.2C45.2,29.3,45.3,29.3,45.4,29.4z"/>
<path style="fill:#050505;" d="M41.9,29.7l3.1-0.2c-2.5,9.3-11.1,16.2-21.2,16.2c-9,0-16.8-5.5-20.2-13.3l6.8-0.5
	c0.5,0.6,0.6,1.4,1.4,1.9c1,0.6,2.2-0.9,3.6-2.2l5.8-0.4c1.7,1.5,3,4.1,5.4,4.2c3.1,0.2,3.5-3.6,7.4-4.6c2.7-0.7,4,1.6,6,0.6
	C40.8,31,41.3,30.2,41.9,29.7z"/>
<path style="fill:#050505;" d="M21.1,31.2l-5.8,0.4c0.8-0.8,1.8-1.5,2.9-1.6C19.4,29.9,20.3,30.4,21.1,31.2z"/>
<path style="fill:#050505;" d="M20.6,26.5c0.9,0.6-2.9-0.7-3.4-1.2c-0.6-0.5-0.8-1.4-0.4-2s1.1-0.7,1.6-0.2
	C19,23.7,19.6,25.8,20.6,26.5z"/>
<path style="fill:#050505;" d="M11.9,23.9c1,0.4,5.4,4.2,4,3.5c-1.6-0.7-4.6,0.1-5.8-0.4c-1.2-0.3-1.5-1.3-1-2.1
	C9.6,24,10.9,23.6,11.9,23.9z"/>
<path style="fill:#050505;" d="M3.6,32.4c2.3-1.1,4.8-2,6.3-0.9c0.2,0.1,0.3,0.3,0.4,0.4L3.6,32.4z"/>
<path style="fill:#020202;stroke:#000000;stroke-miterlimit:10;" d="M45.1,29.2c0.5-1.8,0.7-3.6,0.7-5.5c0-12.1-9.9-22-22-22
	s-22,9.9-22,22c0,3.1,0.6,6,1.8,8.7C7,40.2,14.8,45.7,23.8,45.7c10.1,0,18.7-6.9,21.2-16.3h0.4C45.3,29.3,45.2,29.3,45.1,29.2z
	 M23.8,0.7c12.7,0,23,10.3,23,23s-10.3,23-23,23s-23-10.3-23-23S11.1,0.7,23.8,0.7z"/>
</svg>
