<?xml version="1.0" encoding="utf-8"?>
<!-- Generator: Adobe Illustrator 23.0.6, SVG Export Plug-In . SVG Version: 6.00 Build 0)  -->
<svg version="1.1" id="Layer_1" xmlns="http://www.w3.org/2000/svg" xmlns:xlink="http://www.w3.org/1999/xlink" x="0px" y="0px"
	 viewBox="0 0 22.5 17.5" style="enable-background:new 0 0 22.5 17.5;" xml:space="preserve">
<g id="_22_Icons_Filled_Star" transform="translate(-0.75 -0.25)">
	<path id="_Icon_Color-2" style="fill:#FFFFFF;" d="M1.9,17.8c-0.7-0.1-1.2-0.7-1.1-1.4c0.1-0.6,0.5-1,1.1-1.1h17.3
		c0.7,0.1,1.2,0.7,1.1,1.4c-0.1,0.6-0.5,1-1.1,1.1H1.9z M1.7,10.3c-0.5,0-0.8-0.6-0.8-1.3c0-0.7,0.4-1.3,0.8-1.3H15
		c0.5,0,0.8,0.6,0.8,1.3c0,0.7-0.4,1.3-0.8,1.3H1.7z M2.1,2.8c-0.7,0-1.3-0.6-1.3-1.3s0.6-1.2,1.3-1.2H22c0.7,0,1.3,0.6,1.3,1.3
		S22.7,2.8,22,2.8H2.1z"/>
</g>
</svg>
