<?xml version="1.0" encoding="utf-8"?>
<!-- Generator: Adobe Illustrator 23.0.6, SVG Export Plug-In . SVG Version: 6.00 Build 0)  -->
<svg version="1.1" id="Layer_1" xmlns="http://www.w3.org/2000/svg" xmlns:xlink="http://www.w3.org/1999/xlink" x="0px" y="0px"
	 viewBox="0 0 85.5 46.1" style="enable-background:new 0 0 85.5 46.1;" xml:space="preserve">
<path style="fill:none;stroke:#000000;stroke-width:2;stroke-miterlimit:10;" d="M54.5,44.6H13.2c-6.6,0-12-5.4-12-12v-19
	c0-6.6,5.4-12,12-12h41.3c6.6,0,12,5.4,12,12v19C66.5,39.2,61.1,44.6,54.5,44.6z"/>
<line style="fill:none;stroke:#000000;stroke-width:2;stroke-miterlimit:10;" x1="8.5" y1="1.5" x2="8.5" y2="44.6"/>
<line style="fill:none;stroke:#000000;stroke-width:2;stroke-miterlimit:10;" x1="46" y1="1.5" x2="46" y2="44.6"/>
<path style="stroke:#000000;stroke-width:0.75;stroke-miterlimit:10;" d="M34.3,9.8H14.4c-0.7,0-1.3-0.6-1.3-1.3l0,0
	c0-0.7,0.6-1.3,1.3-1.3h19.9c0.7,0,1.3,0.6,1.3,1.3l0,0C35.6,9.2,35,9.8,34.3,9.8z"/>
<path style="stroke:#000000;stroke-width:0.75;stroke-miterlimit:10;" d="M34.3,16.8H14.4c-0.7,0-1.3-0.6-1.3-1.3l0,0
	c0-0.7,0.6-1.3,1.3-1.3h19.9c0.7,0,1.3,0.6,1.3,1.3l0,0C35.6,16.2,35,16.8,34.3,16.8z"/>
<path style="stroke:#000000;stroke-width:0.75;stroke-miterlimit:10;" d="M34.3,23.8H14.4c-0.7,0-1.3-0.6-1.3-1.3l0,0
	c0-0.7,0.6-1.3,1.3-1.3h19.9c0.7,0,1.3,0.6,1.3,1.3l0,0C35.6,23.3,35,23.8,34.3,23.8z"/>
<path style="stroke:#000000;stroke-width:0.75;stroke-miterlimit:10;" d="M34.3,30.9H14.4c-0.7,0-1.3-0.6-1.3-1.3l0,0
	c0-0.7,0.6-1.3,1.3-1.3h19.9c0.7,0,1.3,0.6,1.3,1.3l0,0C35.6,30.3,35,30.9,34.3,30.9z"/>
<path style="stroke:#000000;stroke-width:0.75;stroke-miterlimit:10;" d="M34.3,37.9H14.4c-0.7,0-1.3-0.6-1.3-1.3l0,0
	c0-0.7,0.6-1.3,1.3-1.3h19.9c0.7,0,1.3,0.6,1.3,1.3l0,0C35.6,37.3,35,37.9,34.3,37.9z"/>
<path style="fill:none;stroke:#000000;stroke-width:2;stroke-miterlimit:10;" d="M69.4,33.2L69.4,33.2c-1.6,0-2.9-1.3-2.9-2.9V14.8
	c0-1.6,1.3-2.9,2.9-2.9l0,0c1.6,0,2.9,1.3,2.9,2.9v15.5C72.4,31.9,71,33.2,69.4,33.2z"/>
<path style="fill:none;stroke:#000000;stroke-width:2;stroke-miterlimit:10;" d="M81.8,20h-9.4l0,0c0,0.2,0,0.4,0,0.7
	c0,1,0.1,2.1,0,3.1c0,0.4,0.1,0.8,0.1,1.2h9.4c0.7,0,1.3-0.3,1.8-0.7c0.5-0.5,0.7-1.1,0.7-1.8C84.3,21.2,83.2,20,81.8,20z"/>
<g>
	<g id="XMLID_1_">
		<g>
			<polygon points="56.5,21.4 60.1,22.3 53.5,27.4 52.9,27.9 56.7,23.4 56.1,23.2 53.9,22.7 53.1,22.5 53.1,22.5 60.1,16.4 			"/>
			<path d="M53.5,27.4l6.6-5.1C57.9,24,55.7,25.8,53.5,27.4z"/>
			<path d="M53.9,22.7l2.1,0.5C55.3,23.1,54.6,22.9,53.9,22.7z"/>
		</g>
		<g>
			<polyline style="fill:none;stroke:#000000;stroke-miterlimit:10;" points="60.1,16.4 56.5,21.4 56.5,21.4 			"/>
			<polyline style="fill:none;stroke:#000000;stroke-miterlimit:10;" points="60.1,22.3 60.1,22.3 56.5,21.4 56.3,21.3 			"/>
			<path style="fill:none;stroke:#000000;stroke-miterlimit:10;" d="M60.1,22.3c-2.2,1.7-4.3,3.5-6.6,5.1"/>
			<line style="fill:none;stroke:#000000;stroke-miterlimit:10;" x1="60.1" y1="22.3" x2="60.3" y2="22.1"/>
			<polyline style="fill:none;stroke:#000000;stroke-miterlimit:10;" points="52.6,28.1 52.9,27.9 53.5,27.4 			"/>
			<line style="fill:none;stroke:#000000;stroke-miterlimit:10;" x1="60.1" y1="16.4" x2="53.1" y2="22.5"/>
			<path style="fill:none;stroke:#000000;stroke-miterlimit:10;" d="M56.1,23.2c-0.7-0.2-1.5-0.3-2.1-0.5"/>
			<polyline style="fill:none;stroke:#000000;stroke-miterlimit:10;" points="56.1,23.2 56.7,23.4 56.8,23.4 			"/>
			<polyline style="fill:none;stroke:#000000;stroke-miterlimit:10;" points="53,22.5 53.1,22.5 53.9,22.7 			"/>
			<polyline style="fill:none;stroke:#000000;stroke-miterlimit:10;" points="56.9,23.2 56.7,23.4 52.9,27.9 52.6,28.2 			"/>
		</g>
	</g>
</g>
</svg>
