<?xml version="1.0" encoding="utf-8"?>
<!-- Generator: Adobe Illustrator 23.0.6, SVG Export Plug-In . SVG Version: 6.00 Build 0)  -->
<svg version="1.1" id="Layer_1" xmlns="http://www.w3.org/2000/svg" xmlns:xlink="http://www.w3.org/1999/xlink" x="0px" y="0px"
	 viewBox="0 0 43.9 60" style="enable-background:new 0 0 43.9 60;" xml:space="preserve">
<path d="M30.4,59.9c-0.3-0.5-0.5-1-0.8-1.4c-1-1.6-2-3.2-3.1-4.8c-0.9-1.5-1.9-3-2.8-4.5c-1.8-2.8-3.5-5.6-5.3-8.3
	c-1.4-2.1-2.7-4.3-4.1-6.4c-0.2-0.4-0.5-0.8-0.7-1.2c-0.1-0.1-0.1-0.3-0.2-0.5c0-1.6,0-3.3,0-4.9c0,0,0-0.1,0-0.2c0.2,0,0.3,0,0.5,0
	c1.9,0,3.7,0,5.6-0.1c0.9-0.1,1.9-0.3,2.8-0.5c1.4-0.5,2.8-1.2,3.9-2.3c1.6-1.6,2.6-3.5,2.9-5.7c0.1-0.6,0.1-1.2,0.2-1.9
	c-5.8,0-11.5,0-17.4,0c0.2-0.4,0.3-0.7,0.5-1c0.7-1.4,1.4-2.8,2.1-4.2c0.1-0.3,0.3-0.4,0.6-0.4c4.3,0,8.6,0,12.9,0
	c0.2,0,0.3,0,0.6,0c-0.4-0.7-0.6-1.4-1-2c-0.7-1.1-1.7-2-2.8-2.6c-0.4-0.2-0.8-0.4-1.2-0.5c-0.8-0.2-1.7-0.4-2.5-0.6
	c-1.4-0.3-2.8-0.2-4.2-0.3c-1.5,0-3,0-4.5,0c-0.1,0-0.3,0-0.5,0c0.3-0.5,0.5-1,0.7-1.5c0.7-1.3,1.3-2.5,2-3.8
	c0.1-0.1,0.3-0.2,0.4-0.3c0.1,0,0.2,0,0.2,0c9.4,0,18.8,0,28.2,0c0.2,0,0.3,0,0.6,0c-0.2,0.4-0.4,0.8-0.6,1.2
	c-0.7,1.4-1.4,2.7-2.1,4.1c-0.1,0.3-0.3,0.3-0.5,0.3c-2.3,0-4.6,0-6.9,0c-0.1,0-0.3,0-0.5,0c1.2,1.9,1.8,3.8,2.1,6
	c2.8,0,5.7,0,8.6,0c-0.2,0.4-0.4,0.8-0.6,1.1c-0.7,1.4-1.4,2.8-2.2,4.2c-0.1,0.2-0.2,0.3-0.5,0.3c-1.6,0-3.1,0-4.7,0
	c-0.2,0-0.3,0-0.5,0c-0.4,4-1.9,7.5-4.8,10.3c-2.9,2.8-6.4,4.2-10.4,4.6c0.4,0.6,0.7,1.1,1.1,1.7c0.9,1.5,1.9,3,2.8,4.4
	c0.9,1.5,1.9,2.9,2.8,4.4c0.8,1.3,1.7,2.6,2.5,4c1,1.5,1.9,3,2.9,4.5c1,1.6,2,3.2,3.1,4.8c0.8,1.2,1.6,2.5,2.3,3.7
	c0.1,0.1,0.1,0.2,0.1,0.3C35.6,59.9,33,59.9,30.4,59.9z"/>
</svg>
